<svg width="26px" height="26px" viewBox="0 0 26 26" version="1.1" xmlns="http://www.w3.org/2000/svg" xmlns:xlink="http://www.w3.org/1999/xlink">
    <g id="Page-4" stroke="none" stroke-width="1" fill="none" fill-rule="evenodd">
        <g id="football-calendar-desktop-main" transform="translate(-127.000000, -388.000000)" fill="#333333">
            <g id="Group-8-Copy" transform="translate(110.000000, 371.000000)">
                <g id="Grid-icon" transform="translate(17.000000, 17.000000)">
                    <polygon id="Rectangle-11" points="0.722473145 0 12 0 12 12 0 12 0 0.725082397"></polygon>
                    <polygon id="Rectangle-11-Copy" transform="translate(6.000000, 20.000000) scale(1, -1) translate(-6.000000, -20.000000) " points="0.722473145 14 12 14 12 26 0 26 0 14.7250824"></polygon>
                    <polygon id="Rectangle-11-Copy-4" transform="translate(20.000000, 6.000000) scale(-1, 1) translate(-20.000000, -6.000000) " points="14.7224731 0 26 0 26 12 14 12 14 0.725082397"></polygon>
                    <polygon id="Rectangle-11-Copy-5" transform="translate(20.000000, 20.000000) scale(-1, -1) translate(-20.000000, -20.000000) " points="14.7224731 14 26 14 26 26 14 26 14 14.7250824"></polygon>
                </g>
            </g>
        </g>
    </g>
</svg>