<?xml version="1.0" encoding="utf-8"?>
<!-- Generator: Adobe Illustrator 20.1.0, SVG Export Plug-In . SVG Version: 6.00 Build 0)  -->
<svg version="1.1" id="Layer_1" xmlns="http://www.w3.org/2000/svg" xmlns:xlink="http://www.w3.org/1999/xlink" x="0px" y="0px"
	 viewBox="0 0 504.5 249" style="enable-background:new 0 0 504.5 249;" xml:space="preserve">
<style type="text/css">
	.st0{opacity:0.1;}
	.st1{fill:#F4F4F4;}
</style>
<title>60 copy</title>
<desc>Created with Sketch.</desc>
<g class="st0">
	<path class="st1" d="M47.5,14.2L0,25.8v-7.3L54.1,1.3H59v244.5H47.5V14.2z"/>
	<path class="st1" d="M110.4,130.2v-10.1C110.4,42.9,145.3,1,202.6,1c56.9,0,91.2,41.2,91.2,118.4v10.5
		c0,77.2-33.9,119.1-91.5,119.1S110.4,206.7,110.4,130.2z M281.9,131.3V119c0-67.8-26.2-108.3-79.3-108.3c-53.4,0-80,40.2-80,107.9
		v11.9c0,68.1,26.6,108.3,79.7,108.3C255.7,238.9,281.9,199.7,281.9,131.3z"/>
	<path class="st1" d="M321,130.2v-10.1C321,42.9,356,1,413.3,1c56.9,0,91.2,41.2,91.2,118.4v10.5c0,77.2-33.9,119.1-91.5,119.1
		S321,206.7,321,130.2z M492.6,131.3V119c0-67.8-26.2-108.3-79.3-108.3c-53.4,0-80,40.2-80,107.9v11.9c0,68.1,26.6,108.3,79.7,108.3
		C466.4,238.9,492.6,199.7,492.6,131.3z"/>
</g>
</svg>
