<?xml version="1.0" encoding="utf-8"?>
<!-- Generator: Adobe Illustrator 20.1.0, SVG Export Plug-In . SVG Version: 6.00 Build 0)  -->
<svg version="1.1" xmlns="http://www.w3.org/2000/svg" xmlns:xlink="http://www.w3.org/1999/xlink" x="0px" y="0px"
	 viewBox="0 0 125 72" style="enable-background:new 0 0 125 72;" xml:space="preserve">
<style type="text/css">
	.st0{fill:none;stroke:#FFFFFF;stroke-miterlimit:10;}
	.st1{fill:#FFFFFF;}
</style>
<g id="pitch">
	<rect x="1" y="1" class="st0" width="123" height="70"/>
	<line class="st0" x1="62.5" y1="1" x2="62.5" y2="71"/>
	<circle class="st0" cx="62.5" cy="36" r="7.6"/>
	<circle class="st0" cx="103.5" cy="35.9" r="0.4"/>
	<circle class="st0" cx="21.5" cy="35.9" r="0.4"/>
	<polyline class="st0" points="1,12.4 30.1,12.5 30.1,59.5 1,59.4 	"/>
	<polyline class="st0" points="1,24.7 13,24.7 13,47.2 1,47.1 	"/>
	<polyline class="st0" points="124,24.7 112,24.7 112,47.2 124,47.1 	"/>
	<polyline class="st0" points="124,12.4 94.9,12.5 94.9,59.5 124,59.4 	"/>
</g>
<g id="markers">
	<circle id="goalkeeper" class="st1" cx="117.6" cy="35.9" r="4"/>
	<circle id="defender" class="st1" cx="89.3" cy="12.3" r="4"/>
	<circle id="defender_1_" class="st1" cx="89.3" cy="28.3" r="4"/>
	<circle id="defender_2_" class="st1" cx="89.3" cy="44.3" r="4"/>
	<circle id="defender_3_" class="st1" cx="89.3" cy="60.3" r="4"/>
	<circle id="midfielder" class="st1" cx="57.3" cy="12.3" r="4"/>
	<circle id="midfielder_1_" class="st1" cx="57.3" cy="28.3" r="4"/>
	<circle id="midfielder_2_" class="st1" cx="57.3" cy="44.3" r="4"/>
	<circle id="striker" class="st1" cx="30.3" cy="28.3" r="4"/>
	<circle id="striker_1_" class="st1" cx="30.3" cy="44.3" r="4"/>
	<circle id="midfielder_3_" class="st1" cx="57.3" cy="60.3" r="4"/>
</g>
</svg>
