<?xml version="1.0" encoding="UTF-8" standalone="no"?>
<svg width="373px" height="249px" viewBox="0 0 373 249" version="1.1" xmlns="http://www.w3.org/2000/svg" xmlns:xlink="http://www.w3.org/1999/xlink">
    <!-- Generator: Sketch 46.2 (44496) - http://www.bohemiancoding.com/sketch -->
    <title>60 copy</title>
    <desc>Created with Sketch.</desc>
    <defs></defs>
    <g id="Page-4" stroke="none" stroke-width="1" fill="none" fill-rule="evenodd" opacity="0.1">
        <path d="M87.5,248.5 C28.35,248.5 0,203.35 0,139.65 L0,132.3 C0,34.3 43.05,0 102.2,0 C122.15,0 138.6,3.5 149.45,9.1 L149.45,18.55 C137.9,13.3 121.1,9.8 103.6,9.8 C50.05,9.8 13.65,37.8 12.25,126.35 C27.65,113.75 53.2,101.5 86.45,101.5 C130.2,101.5 164.15,121.45 164.15,171.5 C164.15,220.85 134.75,248.5 87.5,248.5 Z M87.5,238.35 C127.05,238.35 152.25,217.7 152.25,172.2 C152.25,127.05 123.9,111.65 84,111.65 C51.8,111.65 28.7,122.5 11.9,136.5 L11.9,139.65 C11.9,196 33.6,238.35 87.5,238.35 Z M280.35,248.5 C222.6,248.5 188.3,206.15 188.3,129.5 L188.3,119.35 C188.3,42 223.3,0 280.7,0 C337.75,0 372.05,41.3 372.05,118.65 L372.05,129.15 C372.05,206.5 338.1,248.5 280.35,248.5 Z M280.35,238.35 C333.9,238.35 360.15,199.15 360.15,130.55 L360.15,118.3 C360.15,50.4 333.9,9.8 280.7,9.8 C227.15,9.8 200.55,50.05 200.55,117.95 L200.55,129.85 C200.55,198.1 227.15,238.35 280.35,238.35 Z" id="60-copy" fill="#F4F4F4"></path>
    </g>
</svg>